<?xml version="1.0" encoding="utf-8"?>
<!-- Generator: Adobe Illustrator 21.0.0, SVG Export Plug-In . SVG Version: 6.00 Build 0)  -->
<svg version="1.1" id="Layer_1" xmlns="http://www.w3.org/2000/svg" xmlns:xlink="http://www.w3.org/1999/xlink" x="0px" y="0px"
	 viewBox="0 0 32 32" style="enable-background:new 0 0 32 32;" xml:space="preserve">
<path d="M31,32c-0.3,0-0.5-0.1-0.7-0.3L18,19.4c-2,1.7-4.5,2.6-7,2.6c-2.9,0-5.7-1.2-7.8-3.2C1.2,16.7,0,13.9,0,11
	c0-2.9,1.2-5.7,3.2-7.8C5.3,1.2,8.1,0,11,0c6.1,0,11,4.9,11,11c0,2.6-0.9,5.1-2.6,7l0.9,0.9c0.4,0.5,1,1,1.6,1.6l2,2l2.2,2.2
	l2.2,2.2c0.7,0.7,1.4,1.3,1.9,1.9c0.5,0.4,0.9,0.9,1.3,1.4c0.3,0.4,0.5,0.6,0.5,0.7c0,0.3-0.1,0.6-0.3,0.8C31.5,31.9,31.3,32,31,32z
	 M11,2c-5,0-9,4-9,9c0,5,4,9,9,9c5,0,9-4,9-9C20,6,16,2,11,2z"/>
</svg>
